<?xml version="1.0" standalone="no"?>
<!DOCTYPE svg PUBLIC "-//W3C//DTD SVG 20010904//EN"
 "http://www.w3.org/TR/2001/REC-SVG-20010904/DTD/svg10.dtd">
<svg version="1.0" xmlns="http://www.w3.org/2000/svg"
 width="522.000000pt" height="522.000000pt" viewBox="0 0 522.000000 522.000000"
 preserveAspectRatio="xMidYMid meet">
<metadata>
Created by potrace 1.14, written by Peter Selinger 2001-2017
</metadata>
<g transform="translate(0.000000,522.000000) scale(0.100000,-0.100000)"
fill="#000000" stroke="none">
<path d="M2297 5190 c-536 -73 -989 -276 -1396 -626 -128 -110 -243 -233 -376
-404 -111 -143 -148 -210 -176 -318 -21 -84 -25 -215 -8 -276 16 -56 96 -138
169 -170 267 -120 736 -46 1237 194 329 158 603 347 837 578 182 180 298 343
359 506 26 69 30 95 31 176 1 149 -37 207 -184 284 -140 73 -266 88 -493 56z"/>
<path d="M3950 4804 c217 -232 228 -547 34 -935 -167 -335 -485 -690 -895
-999 -534 -403 -1161 -684 -1764 -791 -168 -30 -491 -38 -632 -15 -379 60
-597 236 -668 540 -14 60 -15 58 -10 -82 12 -344 85 -661 222 -968 157 -352
470 -562 958 -641 135 -22 488 -24 645 -5 1050 130 2156 804 2723 1657 98 147
213 379 260 523 62 190 72 256 72 462 0 164 -3 194 -23 265 -49 170 -121 289
-302 500 -171 199 -411 398 -645 535 -38 23 -37 21 25 -46z"/>
<path d="M5178 2446 c-71 -381 -328 -824 -691 -1188 -769 -772 -1934 -1192
-2811 -1013 -67 13 -159 38 -206 54 -47 16 -94 32 -105 35 -11 4 30 -19 90
-50 470 -243 1059 -329 1596 -234 1096 196 1927 1031 2114 2127 22 129 44 363
34 363 -2 0 -12 -42 -21 -94z"/>
</g>
</svg>
