<svg width="24" height="24" viewBox="0 0 24 24" fill="none" xmlns="http://www.w3.org/2000/svg">
<path fill-rule="evenodd" clip-rule="evenodd" d="M1.40332 12C1.40332 9.18955 2.51977 6.49421 4.50705 4.50693C6.49434 2.51964 9.18967 1.4032 12.0001 1.4032C14.8106 1.4032 17.5059 2.51964 19.4932 4.50693C21.4805 6.49421 22.5969 9.18955 22.5969 12C22.5969 14.8104 21.4805 17.5058 19.4932 19.4931C17.5059 21.4804 14.8106 22.5968 12.0001 22.5968C9.18967 22.5968 6.49434 21.4804 4.50705 19.4931C2.51977 17.5058 1.40332 14.8104 1.40332 12ZM12.0001 2.9232C10.2408 2.92326 8.51939 3.43461 7.04534 4.39504C5.57129 5.35548 4.40812 6.7236 3.69735 8.33296C2.98658 9.94233 2.75883 11.7236 3.04182 13.46C3.32481 15.1964 4.10634 16.8132 5.29132 18.1136C6.01072 16.9868 7.00255 16.0595 8.17514 15.4174C9.34772 14.7753 10.6632 14.4392 12.0001 14.44C13.337 14.439 14.6526 14.7751 15.8252 15.4172C16.9978 16.0593 17.9896 16.9867 18.7089 18.1136C19.8939 16.8132 20.6754 15.1964 20.9584 13.46C21.2414 11.7236 21.0137 9.94233 20.3029 8.33296C19.5921 6.7236 18.429 5.35548 16.9549 4.39504C15.4809 3.43461 13.7595 2.92326 12.0001 2.9232ZM17.5713 19.1664C17.0051 18.1906 16.1924 17.3807 15.2146 16.818C14.2368 16.2552 13.1283 15.9593 12.0001 15.96C10.8719 15.9593 9.76342 16.2552 8.78562 16.818C7.80783 17.3807 6.99511 18.1906 6.42892 19.1664C8.02054 20.4075 9.98182 21.08 12.0001 21.0768C14.0993 21.0768 16.0321 20.3632 17.5713 19.1664ZM8.24012 10.408C8.24012 9.41078 8.63626 8.45441 9.3414 7.74928C10.0465 7.04414 11.0029 6.648 12.0001 6.648C12.9973 6.648 13.9537 7.04414 14.6588 7.74928C15.364 8.45441 15.7601 9.41078 15.7601 10.408C15.7601 11.4052 15.364 12.3616 14.6588 13.0667C13.9537 13.7719 12.9973 14.168 12.0001 14.168C11.0029 14.168 10.0465 13.7719 9.3414 13.0667C8.63626 12.3616 8.24012 11.4052 8.24012 10.408ZM12.0001 8.168C11.706 8.168 11.4147 8.22594 11.1429 8.33851C10.8711 8.45108 10.6242 8.61608 10.4162 8.82408C10.2082 9.03208 10.0432 9.27902 9.93063 9.55079C9.81806 9.82256 9.76012 10.1138 9.76012 10.408C9.76012 10.7022 9.81806 10.9934 9.93063 11.2652C10.0432 11.537 10.2082 11.7839 10.4162 11.9919C10.6242 12.1999 10.8711 12.3649 11.1429 12.4775C11.4147 12.5901 11.706 12.648 12.0001 12.648C12.5942 12.648 13.164 12.412 13.584 11.9919C14.0041 11.5718 14.2401 11.0021 14.2401 10.408C14.2401 9.81391 14.0041 9.24416 13.584 8.82408C13.164 8.404 12.5942 8.168 12.0001 8.168Z" fill="white"/>
</svg>
