<svg width="42" height="42" viewBox="0 0 42 42" fill="none" xmlns="http://www.w3.org/2000/svg">
<g clip-path="url(#clip0_72_2467)">
<path fill-rule="evenodd" clip-rule="evenodd" d="M42 21C42 32.598 32.598 42 21 42C9.40202 42 0 32.598 0 21C0 9.40202 9.40202 0 21 0C32.598 0 42 9.40202 42 21ZM21 24C22.6569 24 24 22.6569 24 21C24 19.3431 22.6569 18 21 18C19.3431 18 18 19.3431 18 21C18 22.6569 19.3431 24 21 24ZM25.83 13H29C30.1 13 31 13.9 31 15V27C31 28.1 30.1 29 29 29H13C11.9 29 11 28.1 11 27V15C11 13.9 11.9 13 13 13H16.17L17.4 11.65C17.78 11.24 18.32 11 18.88 11H23.12C23.3968 11.0002 23.6704 11.0581 23.9235 11.17C24.1767 11.2819 24.4036 11.4454 24.59 11.65L25.83 13ZM16 21C16 23.76 18.24 26 21 26C23.76 26 26 23.76 26 21C26 18.24 23.76 16 21 16C18.24 16 16 18.24 16 21Z" fill="#D9D9D9" fill-opacity="0.5"/>
</g>
<defs>
<clipPath id="clip0_72_2467">
<rect width="42" height="42" fill="white"/>
</clipPath>
</defs>
</svg>
