<svg width="24" height="24" viewBox="0 0 24 24" fill="none" xmlns="http://www.w3.org/2000/svg">
<path d="M12.5 6L9.5 10.5H11.5V13.5L14.5 9H12.5V6Z" fill="white" fill-opacity="0.5"/>
<path fill-rule="evenodd" clip-rule="evenodd" d="M18.9548 9.6365C18.8031 10.9242 18.2855 12.1414 17.4633 13.144C16.9823 13.7315 15.7598 15.41 15.4998 16.5H8.49983C8.23983 15.409 7.01583 13.7305 6.53483 13.1425C5.71306 12.1394 5.19598 10.9219 5.04483 9.634C4.89581 8.34888 5.12009 7.04803 5.69083 5.887C6.26694 4.71711 7.16247 3.73422 8.27383 3.052C9.39484 2.36312 10.6851 1.99893 12.0008 2C13.3198 2 14.6118 2.365 15.7278 3.0535C16.8389 3.73598 17.7341 4.71905 18.3098 5.889C18.8803 7.05028 19.1043 8.35131 18.9548 9.6365ZM14.7913 15.5H9.20783C8.99483 15.0085 8.71033 14.516 8.44533 14.0975C8.09663 13.5475 7.71737 13.0175 7.30933 12.51C6.60844 11.6548 6.16735 10.6167 6.03833 9.5185C5.91132 8.42409 6.10226 7.31625 6.58833 6.3275C7.08138 5.32706 7.84759 4.48666 8.79833 3.9035C9.76163 3.31174 10.8703 2.99896 12.0008 3C13.1358 3 14.2458 3.3145 15.2033 3.905C16.1537 4.48828 16.9196 5.32868 17.4123 6.329C17.8982 7.318 18.0888 8.42602 17.9613 9.5205C17.8318 10.6184 17.3904 11.6562 16.6893 12.511C16.2811 13.0183 15.902 13.5483 15.5538 14.0985C15.2888 14.517 15.0043 15.0085 14.7913 15.5Z" fill="white" fill-opacity="0.5"/>
<path d="M8.5 18C8.5 17.8674 8.55268 17.7402 8.64645 17.6464C8.74021 17.5527 8.86739 17.5 9 17.5H15C15.1326 17.5 15.2598 17.5527 15.3536 17.6464C15.4473 17.7402 15.5 17.8674 15.5 18C15.5 18.1326 15.4473 18.2598 15.3536 18.3536C15.2598 18.4473 15.1326 18.5 15 18.5H9C8.86739 18.5 8.74021 18.4473 8.64645 18.3536C8.55268 18.2598 8.5 18.1326 8.5 18Z" fill="white" fill-opacity="0.5"/>
<path fill-rule="evenodd" clip-rule="evenodd" d="M8.5 19.5H15.5V21C15.5 21.2652 15.3946 21.5196 15.2071 21.7071C15.0196 21.8946 14.7652 22 14.5 22H9.5C9.23478 22 8.98043 21.8946 8.79289 21.7071C8.60536 21.5196 8.5 21.2652 8.5 21V19.5ZM9.5 20.5H14.5V21H9.5V20.5Z" fill="white" fill-opacity="0.5"/>
</svg>
