<svg width="24" height="24" viewBox="0 0 24 24" fill="none" xmlns="http://www.w3.org/2000/svg">
<path fill-rule="evenodd" clip-rule="evenodd" d="M2.612 18.425C3.68733 19.475 4.98333 20 6.5 20H18.5C19.7493 20.0007 20.8117 19.5633 21.687 18.688C22.5623 17.8127 23 16.75 23 15.5C23.0007 14.3507 22.6217 13.3467 21.863 12.488C21.1043 11.6293 20.15 11.1333 19 11C19.0007 9.05067 18.3217 7.39667 16.963 6.038C15.6043 4.67933 13.95 4 12 4C10.4167 4 9 4.475 7.75 5.425C6.5 6.375 5.66667 7.61667 5.25 9.15C3.98333 9.43333 2.95833 10.0833 2.175 11.1C1.39167 12.1167 1 13.275 1 14.575C0.999335 16.0917 1.53667 17.375 2.612 18.425ZM8.307 16.591C7.56966 16.591 6.95833 16.3484 6.473 15.863C5.98766 15.373 5.745 14.7687 5.745 14.05C5.745 13.3314 5.98766 12.7294 6.473 12.244C6.95833 11.754 7.56966 11.509 8.307 11.509C8.75033 11.509 9.15866 11.614 9.532 11.824C9.91 12.034 10.204 12.3187 10.414 12.678L9.714 13.084C9.58333 12.8414 9.392 12.65 9.14 12.51C8.89266 12.3654 8.615 12.293 8.307 12.293C7.78433 12.293 7.35966 12.4587 7.033 12.79C6.711 13.1214 6.55 13.5414 6.55 14.05C6.55 14.5587 6.711 14.9787 7.033 15.31C7.35966 15.6414 7.78433 15.807 8.307 15.807C8.615 15.807 8.895 15.737 9.147 15.597C9.399 15.4524 9.588 15.2587 9.714 15.016L10.414 15.415C10.2087 15.7744 9.917 16.0614 9.539 16.276C9.16566 16.486 8.755 16.591 8.307 16.591ZM15.1436 15.856C14.6536 16.346 14.0539 16.591 13.3446 16.591C12.6353 16.591 12.0333 16.346 11.5386 15.856C11.0486 15.3614 10.8036 14.7594 10.8036 14.05C10.8036 13.3407 11.0486 12.741 11.5386 12.251C12.0333 11.7564 12.6353 11.509 13.3446 11.509C14.0539 11.509 14.6536 11.7564 15.1436 12.251C15.6383 12.741 15.8856 13.3407 15.8856 14.05C15.8856 14.7594 15.6383 15.3614 15.1436 15.856ZM12.1056 15.31C12.4416 15.6414 12.8546 15.807 13.3446 15.807C13.8346 15.807 14.2453 15.6414 14.5766 15.31C14.9126 14.974 15.0806 14.554 15.0806 14.05C15.0806 13.546 14.9126 13.1284 14.5766 12.797C14.2453 12.461 13.8346 12.293 13.3446 12.293C12.8546 12.293 12.4416 12.461 12.1056 12.797C11.7743 13.1284 11.6086 13.546 11.6086 14.05C11.6086 14.554 11.7743 14.974 12.1056 15.31ZM16.2601 17.622V18H18.1963V17.5338H16.9783L17.6419 16.8702C17.9751 16.5314 18.1417 16.2122 18.1417 15.9126C18.1417 15.6326 18.0493 15.4114 17.8645 15.249C17.6797 15.0866 17.4585 15.0054 17.2009 15.0054C16.9965 15.0054 16.8103 15.0558 16.6423 15.1566C16.4743 15.2574 16.3441 15.4058 16.2517 15.6018L16.6591 15.8412C16.7767 15.5976 16.9587 15.4758 17.2051 15.4758C17.3367 15.4758 17.4445 15.5164 17.5285 15.5976C17.6153 15.676 17.6587 15.7866 17.6587 15.9294C17.6587 16.1114 17.5341 16.327 17.2849 16.5762L16.2601 17.622Z" fill="white" fill-opacity="0.5"/>
</svg>
