<svg width="11" height="12" viewBox="0 0 11 12" fill="none" xmlns="http://www.w3.org/2000/svg">
<path d="M0.666136 7.82887L0.0162629 10.6394C-0.00615554 10.7422 -0.00538702 10.8486 0.0185122 10.951C0.0424115 11.0534 0.0888378 11.1492 0.1544 11.2313C0.219961 11.3134 0.303003 11.3798 0.397456 11.4257C0.49191 11.4715 0.595391 11.4957 0.70034 11.4963C0.749241 11.5012 0.798515 11.5012 0.847416 11.4963L3.66923 10.8451L9.08712 5.43648L6.0635 2.41343L0.666136 7.82887Z" fill="white" fill-opacity="0.5"/>
<path d="M10.7905 2.72876L8.77244 0.706536C8.63977 0.574257 8.46022 0.5 8.27307 0.5C8.08591 0.5 7.90637 0.574257 7.77369 0.706536L6.6518 1.83075L9.672 4.85723L10.7939 3.73301C10.8595 3.66689 10.9115 3.58844 10.9469 3.50216C10.9823 3.41588 11.0003 3.32345 11 3.23018C10.9997 3.1369 10.981 3.0446 10.9451 2.95856C10.9091 2.87252 10.8566 2.79443 10.7905 2.72876Z" fill="white" fill-opacity="0.5"/>
</svg>
