<svg width="30" height="30" viewBox="0 0 30 30" fill="none" xmlns="http://www.w3.org/2000/svg">
<path fill-rule="evenodd" clip-rule="evenodd" d="M25.6066 25.6066C28.4196 22.7936 30 18.9782 30 15C30 11.0218 28.4196 7.20644 25.6066 4.3934C22.7936 1.58035 18.9782 0 15 0C11.0218 0 7.20644 1.58035 4.3934 4.3934C1.58035 7.20644 0 11.0218 0 15C0 18.9782 1.58035 22.7936 4.3934 25.6066C7.20644 28.4196 11.0218 30 15 30C18.9782 30 22.7936 28.4196 25.6066 25.6066ZM11.8519 11.3119H10.305C10.2444 11.313 10.1842 11.3016 10.1282 11.2786C10.0721 11.2555 10.0214 11.2213 9.97904 11.1779C9.93672 11.1345 9.90371 11.0829 9.88206 11.0263C9.86041 10.9697 9.85056 10.9093 9.85313 10.8487C10.0313 7.66875 12.6338 6.5625 15.0094 6.5625C17.6287 6.5625 20.0212 7.93125 20.0212 10.7644C20.0212 12.7875 18.8306 13.7513 17.6887 14.6194C16.3069 15.6675 15.795 16.0594 15.795 17.4056V17.6025C15.795 17.7268 15.7456 17.846 15.6577 17.934C15.5698 18.0219 15.4506 18.0712 15.3263 18.0712H13.8056C13.6826 18.0713 13.5645 18.0229 13.4768 17.9366C13.3891 17.8503 13.3388 17.733 13.3369 17.61L13.3313 17.2031C13.26 15.465 14.2594 14.3944 15.5212 13.4775C16.6294 12.645 17.3306 12.0975 17.3306 10.9069C17.3306 9.36 16.1531 8.71688 14.8669 8.71688C13.3631 8.71688 12.5194 9.61312 12.3506 10.8431C12.3169 11.1 12.1106 11.3119 11.8519 11.3119ZM16.5938 21.6544C16.5938 22.6537 15.8081 23.3925 14.6644 23.3925H14.6663C13.5694 23.3925 12.7725 22.6537 12.7725 21.6544C12.7725 20.6194 13.5694 19.8919 14.6644 19.8919C15.8063 19.8919 16.5938 20.6194 16.5938 21.6544Z" fill="#A9AAAF"/>
</svg>
