<svg width="48" height="48" viewBox="0 0 48 48" fill="none" xmlns="http://www.w3.org/2000/svg">
<path fill-rule="evenodd" clip-rule="evenodd" d="M18.6773 13.5318C19.2308 13.5318 19.7733 13.5861 20.2942 13.6948C21.4445 9.15069 25.5356 5.7915 30.4189 5.7915C36.192 5.7915 40.8691 10.477 40.8691 16.2604C40.8691 16.9997 40.7931 17.728 40.6412 18.4346C40.7172 18.4346 40.7931 18.4238 40.8691 18.4238C44.2548 18.4238 47.0003 21.1742 47.0003 24.566C47.0003 27.9578 44.4393 30.5125 41.2055 30.6864V30.7082H19.2633V30.6756C19.068 30.6864 18.8727 30.7082 18.6773 30.7082C13.946 30.7082 10.1045 26.8598 10.1045 22.12C10.1045 17.3801 13.946 13.5318 18.6773 13.5318Z" fill="#F5F5F5" fill-opacity="0.5"/>
<path fill-rule="evenodd" clip-rule="evenodd" d="M31.9382 20.6741C31.3532 20.6741 30.7797 20.7315 30.2291 20.8463C29.0132 16.0475 24.6888 12.5 19.5271 12.5C13.4247 12.5 8.48088 17.4481 8.48088 23.5557C8.48088 24.3364 8.56118 25.1056 8.72176 25.8518C8.64147 25.8518 8.56118 25.8403 8.48088 25.8403C4.90206 25.8403 2 28.7449 2 32.3268C2 35.9087 4.70706 38.6066 8.12529 38.7903V38.8132H31.3188V38.7788C31.5253 38.7903 31.7318 38.8132 31.9382 38.8132C36.9394 38.8132 41 34.7492 41 29.7437C41 24.7382 36.9394 20.6741 31.9382 20.6741Z" fill="white"/>
</svg>
