<svg width="30" height="30" viewBox="0 0 30 30" fill="none" xmlns="http://www.w3.org/2000/svg">
<path fill-rule="evenodd" clip-rule="evenodd" d="M25.6066 25.6066C28.4196 22.7936 30 18.9782 30 15C30 11.0218 28.4196 7.20644 25.6066 4.3934C22.7936 1.58035 18.9782 0 15 0C11.0218 0 7.20644 1.58035 4.3934 4.3934C1.58035 7.20644 0 11.0218 0 15C0 18.9782 1.58035 22.7936 4.3934 25.6066C7.20644 28.4196 11.0218 30 15 30C18.9782 30 22.7936 28.4196 25.6066 25.6066ZM14.8482 16.3856L17.0228 21.992L17.3841 21.9897C17.5456 21.5864 18.9208 18.1145 21.5096 11.5739L21.5131 11.5616C21.6224 11.2266 21.8227 10.9362 22.0872 10.7292C22.3517 10.5222 22.6677 10.4086 22.9929 10.4036L23 10.0488L22.9929 10.0325L19.5984 10V10.4059H19.6027C19.7393 10.4118 19.875 10.4325 20.0079 10.4678L20.0185 10.4709C20.1877 10.5227 20.3469 10.6077 20.4881 10.7219L20.4917 10.7242C20.6571 10.8464 20.7836 11.0218 20.8537 11.2262L17.5994 19.4313C17.565 19.3399 17.266 18.603 16.7027 17.2206C16.1393 15.8383 15.8257 15.0583 15.7619 14.8806L17.3338 11.3145L17.3381 11.3075C17.507 11.0383 17.7334 10.8182 17.9975 10.6661L17.9876 10.6716C18.2592 10.5043 18.5637 10.411 18.8752 10.3997V10.0046L16.8677 10.0163C16.3435 10.0188 15.9242 10.0201 15.6096 10.0201V10.2122V10.2138V10.2471C15.6096 10.3058 15.6068 10.3637 15.6019 10.4139C15.6 10.4141 15.5981 10.4142 15.5962 10.4144H15.6019C15.6019 10.4142 15.6019 10.4141 15.6019 10.4139C15.9307 10.3882 16.2597 10.4624 16.5525 10.6282C16.7192 10.7588 16.7435 10.9721 16.6254 11.268C16.3157 12.0694 15.8902 13.0456 15.349 14.1967C15.1917 13.8305 14.9804 13.3263 14.715 12.6839C14.4496 12.0415 14.2357 11.5319 14.0732 11.1549C13.9701 10.9077 14.0003 10.7221 14.1639 10.5982C14.3578 10.4706 14.5843 10.3974 14.8269 10.3974H14.8552V10.0178L11.0705 10.0101V10.4152C11.8723 10.4255 12.3668 10.6166 12.5538 10.9884C12.6959 11.2739 13.0303 12.0674 13.5568 13.3686C14.0834 14.6699 14.3934 15.4254 14.4869 15.6351C14.3802 15.8607 14.0581 16.5263 13.5207 17.6319C12.9833 18.7375 12.639 19.4542 12.4879 19.7822C12.2664 19.2451 11.6872 17.7925 10.7503 15.4244C9.81335 13.0562 9.2809 11.7136 9.15292 11.3966L9.15434 11.3989C9.11373 11.3155 9.09882 11.2201 9.11184 11.1267C9.12486 11.0333 9.16511 10.947 9.22659 10.8807L9.2273 10.8799C9.35908 10.7227 9.52506 10.6046 9.70976 10.5365L9.70261 10.5391C9.89536 10.4629 10.0972 10.4177 10.3019 10.4051V10.0015H6C6 10.0449 6.00118 10.1177 6.00354 10.22C6.0059 10.3222 6.00708 10.3868 6.00708 10.4136L6.01204 10.4144C6.28818 10.4413 6.5496 10.5624 6.75937 10.7606L6.76999 10.7692C7.05161 10.9997 7.30472 11.2692 7.52298 11.5708L7.51802 11.5646C7.71829 11.8302 7.88484 12.1241 8.01317 12.4384C8.4363 13.5254 9.07477 15.1285 9.92858 17.2477C10.7824 19.367 11.4109 20.9456 11.8142 21.9835L11.8086 21.9827C11.8596 21.992 11.9127 21.9967 11.9658 21.9967L12.0068 21.9959C12.0755 22.0023 12.1446 22.0012 12.213 21.9928C12.5313 21.2776 13.0196 20.2301 13.6779 18.8503C14.3362 17.4706 14.7263 16.649 14.8482 16.3856Z" fill="#A9AAAF"/>
</svg>
