<svg width="24" height="24" viewBox="0 0 24 24" fill="none" xmlns="http://www.w3.org/2000/svg">
<path d="M5.99952 11.5H11.6875C12.2663 11.4998 12.8371 11.3656 13.3554 11.108C13.8736 10.8503 14.3252 10.4763 14.6748 10.015C15.0243 9.55374 15.2624 9.01783 15.3703 8.44923C15.4782 7.88063 15.4531 7.29476 15.2968 6.7375C15.1405 6.18024 14.8574 5.66672 14.4696 5.23712C14.0818 4.80753 13.5998 4.47354 13.0614 4.26129C12.5229 4.04903 11.9427 3.96429 11.366 4.01368C10.7894 4.06308 10.232 4.24527 9.73752 4.546C9.57352 4.65224 9.45746 4.8183 9.41405 5.00882C9.37063 5.19935 9.40329 5.39929 9.50507 5.5661C9.60685 5.73291 9.76971 5.85341 9.95899 5.90195C10.1483 5.95049 10.349 5.92324 10.5185 5.826C10.8153 5.64607 11.1497 5.53724 11.4955 5.508C11.8413 5.47876 12.1892 5.52992 12.512 5.65747C12.8347 5.78502 13.1236 5.98551 13.356 6.24325C13.5884 6.50099 13.7581 6.80901 13.8517 7.1432C13.9452 7.47739 13.9603 7.82871 13.8955 8.16967C13.8308 8.51063 13.6881 8.832 13.4785 9.10864C13.2689 9.38527 12.9982 9.60968 12.6875 9.76432C12.3768 9.91895 12.0346 9.99961 11.6875 10L5.99952 10.001C5.80061 10.001 5.60985 10.08 5.46919 10.2207C5.32854 10.3613 5.24952 10.5521 5.24952 10.751C5.24952 10.9499 5.32854 11.1407 5.46919 11.2813C5.60985 11.422 5.80061 11.501 5.99952 11.501V11.5ZM1.99952 15H11.9655C12.197 15 12.4253 15.0536 12.6327 15.1566C12.84 15.2596 13.0206 15.4092 13.1605 15.5936C13.3004 15.7781 13.3956 15.9924 13.4389 16.2198C13.4821 16.4472 13.4721 16.6816 13.4097 16.9045C13.3473 17.1274 13.2342 17.3328 13.0791 17.5047C12.9241 17.6766 12.7313 17.8103 12.516 17.8952C12.3007 17.9802 12.0686 18.0142 11.838 17.9946C11.6073 17.9749 11.3844 17.9022 11.1865 17.782C11.0168 17.6825 10.8148 17.6537 10.624 17.7018C10.4333 17.7499 10.269 17.871 10.1667 18.039C10.0644 18.207 10.0322 18.4085 10.0771 18.6001C10.1219 18.7916 10.2402 18.9579 10.4065 19.063C10.8021 19.3036 11.248 19.4495 11.7094 19.489C12.1707 19.5286 12.6349 19.4608 13.0657 19.291C13.4965 19.1213 13.8821 18.8541 14.1924 18.5104C14.5027 18.1667 14.7292 17.7559 14.8543 17.31C14.9793 16.8642 14.9994 16.3955 14.9131 15.9406C14.8267 15.4856 14.6363 15.0569 14.3566 14.6879C14.0769 14.3189 13.7156 14.0196 13.3009 13.8135C12.8863 13.6074 12.4296 13.5001 11.9665 13.5H1.99852C1.90003 13.5001 1.80252 13.5195 1.71155 13.5573C1.62058 13.595 1.53794 13.6503 1.46834 13.72C1.39874 13.7897 1.34355 13.8724 1.30592 13.9634C1.26829 14.0545 1.24896 14.152 1.24902 14.2505C1.24909 14.349 1.26855 14.4465 1.30631 14.5375C1.34406 14.6284 1.39936 14.7111 1.46905 14.7807C1.53874 14.8503 1.62145 14.9055 1.71247 14.9431C1.80349 14.9807 1.90103 15.0001 1.99952 15ZM16.6665 13H18.9175C19.3806 12.9999 19.8373 12.8926 20.2519 12.6865C20.6666 12.4804 21.0279 12.1811 21.3076 11.8121C21.5873 11.4431 21.7777 11.0144 21.8641 10.5594C21.9504 10.1045 21.9303 9.63581 21.8053 9.18997C21.6803 8.74414 21.4537 8.3333 21.1434 7.98961C20.8331 7.64593 20.4475 7.37874 20.0167 7.20895C19.5859 7.03917 19.1217 6.97141 18.6604 7.01097C18.199 7.05053 17.7531 7.19635 17.3575 7.437C17.1935 7.54324 17.0775 7.7093 17.034 7.89982C16.9906 8.09035 17.0233 8.29029 17.1251 8.4571C17.2268 8.62391 17.3897 8.74441 17.579 8.79295C17.7683 8.84149 17.969 8.81424 18.1385 8.717C18.3364 8.59682 18.5593 8.52406 18.79 8.50441C19.0206 8.48477 19.2527 8.51877 19.468 8.60376C19.6833 8.68875 19.8761 8.82242 20.0311 8.9943C20.1861 9.16619 20.2993 9.37163 20.3617 9.59454C20.4241 9.81744 20.4341 10.0518 20.3909 10.2792C20.3476 10.5066 20.2524 10.7209 20.1125 10.9054C19.9726 11.0898 19.792 11.2394 19.5847 11.3424C19.3773 11.4454 19.149 11.499 18.9175 11.499L16.6665 11.5C16.4676 11.5 16.2768 11.579 16.1362 11.7197C15.9955 11.8603 15.9165 12.0511 15.9165 12.25C15.9165 12.4489 15.9955 12.6397 16.1362 12.7803C16.2768 12.921 16.4676 13 16.6665 13Z" fill="white" fill-opacity="0.5"/>
</svg>
