<svg width="260" height="261" viewBox="0 0 260 261" fill="none" xmlns="http://www.w3.org/2000/svg">
<path d="M130 260.351C200.791 261.392 258.959 203.231 260 130.497C258.829 57.6337 200.661 -0.527153 130 0.513757C59.2092 -0.527153 1.04104 57.6337 0 130.497C1.04104 203.231 59.2092 261.392 130 260.351Z" fill="#FFC800"/>
<path d="M185.826 227.302C141.712 252.804 93.8244 257.358 63.2438 242.135C103.844 266.336 153.944 266.596 194.805 243.046C235.276 220.146 260.261 176.167 259.74 128.546C257.918 162.636 229.94 201.8 185.826 227.302Z" fill="black"/>
<path d="M146.397 10.1426C155.376 25.6261 133.775 54.9017 98.1191 75.4597C62.4634 96.0176 26.4174 100.181 17.4384 84.6977C17.048 83.917 16.6576 83.1364 16.3974 82.3557C14.7057 72.8574 17.3083 63.229 23.5545 55.9426C24.5956 54.3812 25.7667 52.95 26.9379 51.3886C37.3483 37.8568 50.3613 26.5369 65.066 18.0795C79.7707 9.36187 96.037 3.8971 112.824 1.68516C114.776 1.42494 116.598 1.16471 118.419 1.03459C127.789 -0.656884 137.418 1.81528 144.836 8.06074C145.356 8.7113 146.007 9.36187 146.397 10.1426Z" fill="black"/>
<path d="M201.702 26.7966C217.318 53.8603 185.826 101.222 131.302 132.709C76.7772 164.197 19.9103 167.71 4.42482 140.646C1.82222 136.092 0.390786 131.018 0.130526 125.683C-0.520125 144.289 2.73313 162.765 9.89029 179.941C10.9313 182.543 12.1025 185.145 13.4038 187.747L13.5339 188.138C18.4789 196.335 25.5059 202.971 33.8342 207.264C64.4148 223.659 116.076 218.064 164.485 190.089C212.763 162.245 243.474 120.218 244.645 85.608C245.166 76.1097 242.953 66.7416 238.269 58.5444C236.447 55.9421 234.625 53.3398 232.673 50.8677C221.352 36.2949 207.168 24.3245 191.031 15.8671C195.456 18.5995 199.1 22.3728 201.702 26.7966V26.7966V26.7966Z" fill="black"/>
<path d="M130 260.351C200.791 261.392 258.959 203.231 260 130.497C258.829 57.6337 200.661 -0.527153 130 0.513757C59.2092 -0.527153 1.04104 57.6337 0 130.497C1.04104 203.231 59.2092 261.392 130 260.351Z" fill="url(#paint0_radial_545_2)"/>
<defs>
<radialGradient id="paint0_radial_545_2" cx="0" cy="0" r="1" gradientUnits="userSpaceOnUse" gradientTransform="translate(129.973 130.479) scale(129.919 129.851)">
<stop offset="0.5" stop-color="white" stop-opacity="0.01"/>
<stop offset="1" stop-color="white" stop-opacity="0.35"/>
</radialGradient>
</defs>
</svg>
